<svg xmlns="http://www.w3.org/2000/svg" width="47" height="47" fill="none"><path stroke="#4C4C56" stroke-width="3" d="M13.398 33h14.986A1.614 1.614 0 0 0 30 31.381V10.62A1.62 1.62 0 0 0 28.384 9H4.616A1.614 1.614 0 0 0 3 10.619v20.746a1.62 1.62 0 0 0 1.616 1.619h2.1"/><path stroke="#4C4C56" stroke-width="3" d="M33.39 33H30V16h8.032a.817.817 0 0 1 .622.287l5.158 6.2a.823.823 0 0 1 .188.527V33h-3.512M10 38c2.21 0 4-1.567 4-3.5S12.21 31 10 31s-4 1.567-4 3.5S7.79 38 10 38Z"/><path stroke="#4C4C56" stroke-width="3" d="M37 38c2.21 0 4-1.567 4-3.5S39.21 31 37 31s-4 1.567-4 3.5 1.79 3.5 4 3.5Z"/></svg>