<svg xmlns="http://www.w3.org/2000/svg" width="47" height="47" fill="none"><path stroke="#4C4C56" stroke-width="3" d="M21.827 13.752c.745-1.335 1.117-2.002 1.673-2.002s.928.668 1.673 2.002l.192.346c.211.38.317.569.482.694.165.125.37.172.78.264l.375.085c1.445.327 2.167.49 2.34 1.043.171.553-.322 1.13-1.306 2.281l-.256.298c-.28.327-.42.491-.482.694-.063.202-.042.42 0 .857l.039.398c.149 1.537.223 2.305-.227 2.647-.45.342-1.126.03-2.48-.593l-.35-.16c-.384-.178-.576-.266-.78-.266-.204 0-.396.088-.78.265l-.35.161c-1.354.623-2.03.935-2.48.593-.45-.342-.376-1.11-.227-2.647l.039-.398c.042-.436.063-.655 0-.857-.063-.203-.203-.367-.483-.694l-.254-.298c-.986-1.152-1.478-1.728-1.306-2.28.172-.553.894-.717 2.34-1.044l.373-.085c.41-.092.616-.139.78-.264.166-.125.272-.315.483-.694l.192-.346Z"/><path stroke="#4C4C56" stroke-width="3" d="M37.208 17.625c0 7.57-6.137 13.708-13.708 13.708-7.57 0-13.708-6.137-13.708-13.708 0-7.57 6.137-13.708 13.708-13.708 7.57 0 13.708 6.137 13.708 13.708Z"/><path stroke="#4C4C56" stroke-width="3" d="m23.5 31.466-7.386 7.647c-1.058 1.096-1.586 1.643-2.034 1.833-1.02.431-2.153.062-2.69-.878-.235-.413-.309-1.157-.456-2.645-.082-.84-.124-1.26-.25-1.613a2.805 2.805 0 0 0-1.634-1.692c-.34-.13-.746-.173-1.558-.26-1.437-.151-2.156-.227-2.554-.471-.908-.556-1.265-1.728-.848-2.785.183-.464.712-1.011 1.77-2.107l4.824-4.995M23.5 31.466l7.386 7.647c1.058 1.096 1.586 1.643 2.034 1.833 1.02.431 2.153.062 2.69-.878.235-.413.309-1.157.456-2.645.082-.84.124-1.26.25-1.613.281-.788.873-1.4 1.634-1.692.34-.13.746-.173 1.558-.26 1.437-.151 2.156-.227 2.554-.471.908-.556 1.265-1.728.848-2.785-.183-.464-.712-1.011-1.77-2.107L36.317 23.5"/></svg>