<svg xmlns="http://www.w3.org/2000/svg" width="47" height="47" fill="none"><g clip-path="url(#a)"><mask id="b" width="48" height="45" x="0" y="1" fill="#000" maskUnits="userSpaceOnUse"><path fill="#fff" d="M0 1h48v45H0z"/><path d="M37.682 45h-8.415a.596.596 0 0 1-.6-.592v-1.801a21.436 21.436 0 0 1-4.335.443c-1.985 0-3.934-.27-5.804-.803v2.161a.596.596 0 0 1-.6.592H10.23a.596.596 0 0 1-.6-.592v-7.703a14.397 14.397 0 0 1-2.404-3.913h-3.42a.641.641 0 0 1-.107-.01 1.612 1.612 0 0 1-.083.007c-1.365.074-2.51-1.488-2.61-3.533-.045-.92.132-1.805.5-2.49.33-.62.787-1.032 1.313-1.195a.573.573 0 0 1 .266-.067h.045a1.764 1.764 0 0 1 .427 0h2.92c.537-3.161 1.65-5.252 3.85-7.245l-.913-3.835a.587.587 0 0 1 .218-.604.608.608 0 0 1 .648-.054l3.397 1.774c2.979-1.883 6.561-2.837 10.654-2.837 9.418 0 17.177 6.08 18.001 13.809A6.832 6.832 0 0 0 44.26 25.3c1.302-1.152 1.544-2.475 1.547-2.488a.6.6 0 0 1 .693-.484c.327.055.547.36.491.683-.012.07-.318 1.746-1.929 3.17-1.056.933-2.077 1.375-2.657 1.569v.125c0 3.52-1.462 6.936-4.123 9.646v6.886a.596.596 0 0 1-.6.592Zm-4.564-1.184h3.963V37.28c0-.157.063-.307.175-.418 2.546-2.514 3.948-5.706 3.948-8.986 0-7.714-7.569-13.99-16.872-13.99-3.977 0-7.429.947-10.26 2.815l-2.686 2.213C9.101 20.9 8.071 22.87 7.588 26.18a.598.598 0 0 1-.595.508H5.194c.386.618.636 1.433.68 2.338.05.996-.16 1.907-.551 2.582h4.857c.04.004 1.121.032 1.885-.813a.605.605 0 0 1 .431-.199.586.586 0 0 1 .443.173l.617.609a.586.586 0 0 1 0 .837.608.608 0 0 1-.85 0l-.207-.205c-1.022.789-2.185.788-2.36.782H8.533c.959 2.114 2.532 4.014 4.592 5.535a.59.59 0 0 1 .24.473v5.016h3.963v-2.373c0-.19.093-.369.25-.48a.606.606 0 0 1 .541-.081c1.986.653 4.077.985 6.214.985 2.764 0 5.51-.57 7.938-1.647a.609.609 0 0 1 .574.043.59.59 0 0 1 .274.497v3.056Zm-3.25 0h2.048v-2.165c-.665.258-1.35.482-2.048.67v1.495Zm-19.036 0h1.33v-4.723a17.123 17.123 0 0 1-1.33-1.128v5.851Zm-8.54-13.94c.217 1.049.776 1.752 1.267 1.73a.532.532 0 0 0 .081-.01l.02-.005a.628.628 0 0 0 .048-.015c.404-.14.788-.767.92-1.628a.814.814 0 0 1-.781-.807c0-.413.316-.755.723-.802a3.286 3.286 0 0 0-.445-1.096c-.199-.298-.426-.49-.645-.549a.57.57 0 0 0-.062-.012l-.022-.004c-.022-.003-.046-.003-.067-.003a.495.495 0 0 1-.046.008h-.006c-.017.003-.034.004-.051.008a.41.41 0 0 1-.029.005c-.225.066-.448.285-.628.62-.16.3-.271.669-.327 1.07.31.115.53.41.53.754a.808.808 0 0 1-.48.735Zm2.351-1.11a.38.38 0 0 0-.358.375.38.38 0 0 0 .382.376h.003a4.522 4.522 0 0 0-.027-.752Zm-2.44.092a4.364 4.364 0 0 0 .02.548.372.372 0 0 0-.02-.548Zm8.684-13.436.47 1.972 1.283-1.057-1.753-.915Zm2.245 10.063c-1.035 0-1.877-.828-1.877-1.848 0-1.019.842-1.848 1.877-1.848 1.034 0 1.876.83 1.876 1.848 0 1.02-.842 1.848-1.876 1.848Zm0-2.512a.67.67 0 0 0-.675.664.67.67 0 0 0 .675.665.67.67 0 0 0 .674-.665.67.67 0 0 0-.674-.664Zm7.174.093a.597.597 0 0 1-.6-.592c0-.022-.006-2.216-.445-4.12-.209-.905-.399-1.454-.526-1.762-.5.13-1.355.432-2.002 1.058-.67.65-1.065 1.488-1.068 1.497a.606.606 0 0 1-.796.293.588.588 0 0 1-.299-.783 6.895 6.895 0 0 1 1.32-1.851c1.258-1.218 3.02-1.467 3.095-1.477a.606.606 0 0 1 .564.235c.073.096.456.671.884 2.528.47 2.036.474 4.287.474 4.382a.596.596 0 0 1-.6.592Zm7.955-6.558a.604.604 0 0 1-.238-.05c-.014-.005-1.398-.583-3.313-.583-1.938 0-3.592.59-3.609.596a.604.604 0 0 1-.771-.35.59.59 0 0 1 .355-.76c.075-.027 1.864-.67 4.025-.67 2.178 0 3.727.655 3.792.682.304.131.443.48.31.78a.601.601 0 0 1-.55.355Zm-3.69-6.078c-2.359 0-4.279-1.891-4.279-4.215S22.212 2 24.572 2c2.359 0 4.279 1.89 4.279 4.215 0 2.324-1.92 4.215-4.28 4.215Zm0-7.246c-1.696 0-3.077 1.36-3.077 3.03 0 1.672 1.38 3.032 3.078 3.032 1.696 0 3.077-1.36 3.077-3.031 0-1.672-1.38-3.031-3.078-3.031Z"/></mask><path fill="#4C4C56" d="M37.682 45h-8.415a.596.596 0 0 1-.6-.592v-1.801a21.436 21.436 0 0 1-4.335.443c-1.985 0-3.934-.27-5.804-.803v2.161a.596.596 0 0 1-.6.592H10.23a.596.596 0 0 1-.6-.592v-7.703a14.397 14.397 0 0 1-2.404-3.913h-3.42a.641.641 0 0 1-.107-.01 1.612 1.612 0 0 1-.083.007c-1.365.074-2.51-1.488-2.61-3.533-.045-.92.132-1.805.5-2.49.33-.62.787-1.032 1.313-1.195a.573.573 0 0 1 .266-.067h.045a1.764 1.764 0 0 1 .427 0h2.92c.537-3.161 1.65-5.252 3.85-7.245l-.913-3.835a.587.587 0 0 1 .218-.604.608.608 0 0 1 .648-.054l3.397 1.774c2.979-1.883 6.561-2.837 10.654-2.837 9.418 0 17.177 6.08 18.001 13.809A6.832 6.832 0 0 0 44.26 25.3c1.302-1.152 1.544-2.475 1.547-2.488a.6.6 0 0 1 .693-.484c.327.055.547.36.491.683-.012.07-.318 1.746-1.929 3.17-1.056.933-2.077 1.375-2.657 1.569v.125c0 3.52-1.462 6.936-4.123 9.646v6.886a.596.596 0 0 1-.6.592Zm-4.564-1.184h3.963V37.28c0-.157.063-.307.175-.418 2.546-2.514 3.948-5.706 3.948-8.986 0-7.714-7.569-13.99-16.872-13.99-3.977 0-7.429.947-10.26 2.815l-2.686 2.213C9.101 20.9 8.071 22.87 7.588 26.18a.598.598 0 0 1-.595.508H5.194c.386.618.636 1.433.68 2.338.05.996-.16 1.907-.551 2.582h4.857c.04.004 1.121.032 1.885-.813a.605.605 0 0 1 .431-.199.586.586 0 0 1 .443.173l.617.609a.586.586 0 0 1 0 .837.608.608 0 0 1-.85 0l-.207-.205c-1.022.789-2.185.788-2.36.782H8.533c.959 2.114 2.532 4.014 4.592 5.535a.59.59 0 0 1 .24.473v5.016h3.963v-2.373c0-.19.093-.369.25-.48a.606.606 0 0 1 .541-.081c1.986.653 4.077.985 6.214.985 2.764 0 5.51-.57 7.938-1.647a.609.609 0 0 1 .574.043.59.59 0 0 1 .274.497v3.056Zm-3.25 0h2.048v-2.165c-.665.258-1.35.482-2.048.67v1.495Zm-19.036 0h1.33v-4.723a17.123 17.123 0 0 1-1.33-1.128v5.851Zm-8.54-13.94c.217 1.049.776 1.752 1.267 1.73a.532.532 0 0 0 .081-.01l.02-.005a.628.628 0 0 0 .048-.015c.404-.14.788-.767.92-1.628a.814.814 0 0 1-.781-.807c0-.413.316-.755.723-.802a3.286 3.286 0 0 0-.445-1.096c-.199-.298-.426-.49-.645-.549a.57.57 0 0 0-.062-.012l-.022-.004c-.022-.003-.046-.003-.067-.003a.495.495 0 0 1-.046.008h-.006c-.017.003-.034.004-.051.008a.41.41 0 0 1-.029.005c-.225.066-.448.285-.628.62-.16.3-.271.669-.327 1.07.31.115.53.41.53.754a.808.808 0 0 1-.48.735Zm2.351-1.11a.38.38 0 0 0-.358.375.38.38 0 0 0 .382.376h.003a4.522 4.522 0 0 0-.027-.752Zm-2.44.092a4.364 4.364 0 0 0 .02.548.372.372 0 0 0-.02-.548Zm8.684-13.436.47 1.972 1.283-1.057-1.753-.915Zm2.245 10.063c-1.035 0-1.877-.828-1.877-1.848 0-1.019.842-1.848 1.877-1.848 1.034 0 1.876.83 1.876 1.848 0 1.02-.842 1.848-1.876 1.848Zm0-2.512a.67.67 0 0 0-.675.664.67.67 0 0 0 .675.665.67.67 0 0 0 .674-.665.67.67 0 0 0-.674-.664Zm7.174.093a.597.597 0 0 1-.6-.592c0-.022-.006-2.216-.445-4.12-.209-.905-.399-1.454-.526-1.762-.5.13-1.355.432-2.002 1.058-.67.65-1.065 1.488-1.068 1.497a.606.606 0 0 1-.796.293.588.588 0 0 1-.299-.783 6.895 6.895 0 0 1 1.32-1.851c1.258-1.218 3.02-1.467 3.095-1.477a.606.606 0 0 1 .564.235c.073.096.456.671.884 2.528.47 2.036.474 4.287.474 4.382a.596.596 0 0 1-.6.592Zm7.955-6.558a.604.604 0 0 1-.238-.05c-.014-.005-1.398-.583-3.313-.583-1.938 0-3.592.59-3.609.596a.604.604 0 0 1-.771-.35.59.59 0 0 1 .355-.76c.075-.027 1.864-.67 4.025-.67 2.178 0 3.727.655 3.792.682.304.131.443.48.31.78a.601.601 0 0 1-.55.355Zm-3.69-6.078c-2.359 0-4.279-1.891-4.279-4.215S22.212 2 24.572 2c2.359 0 4.279 1.89 4.279 4.215 0 2.324-1.92 4.215-4.28 4.215Zm0-7.246c-1.696 0-3.077 1.36-3.077 3.03 0 1.672 1.38 3.032 3.078 3.032 1.696 0 3.077-1.36 3.077-3.031 0-1.672-1.38-3.031-3.078-3.031Z"/><path fill="#4C4C56" d="m3.01 25.507.001.013.5-.027-.001-.013-.5.027Zm25.656 17.1h.5v-.614l-.601.124.101.49Zm-10.138-.36.137-.48-.637-.182v.662h.5ZM9.63 36.705h.5v-.185l-.12-.14-.38.325Zm-2.403-3.913.463-.189-.127-.311h-.336v.5Zm-3.527-.01.083-.492-.065-.011-.066.006.048.498Zm-.083.007-.021-.5H3.59l.027.5Zm-2.61-3.533.5-.024-.5.024Zm.5-2.49.44.235-.44-.236ZM2.82 25.57l.149.477.043-.013.04-.021-.232-.443Zm.31-.067v.5h.03l.028-.003-.057-.497Zm.13-.01.025.499-.025-.5Zm.298.01-.06.496.03.004h.03v-.5Zm2.92 0v.5H6.9l.071-.416-.493-.084Zm3.85-7.245.336.37.22-.198-.07-.288-.486.116Zm-.913-3.835-.487.116.487-.116Zm.218-.604.302.398-.302-.398Zm.648-.054-.231.443.231-.443Zm3.397 1.774-.231.443.255.133.243-.154-.267-.422Zm28.655 10.972-.497.053.07.66.616-.25-.189-.463ZM44.26 25.3l.33.374-.33-.374Zm1.547-2.488-.493-.085v.005l.493.08Zm.693-.484.083-.493-.083.493Zm.491.683.493.086-.493-.086Zm-1.929 3.17.331.374-.33-.374Zm-2.657 1.569-.158-.475-.344.115.002.362.5-.002Zm-4.123 9.771-.356-.35-.144.146v.204h.5Zm0 6.886h-.5.5Zm-1.201-.592v.5h.5v-.5h-.5Zm.175-6.954-.351-.356.351.356ZM14.072 16.701l-.275-.418-.022.015-.02.017.317.386Zm-2.686 2.213-.318-.386-.01.008.328.378ZM7.588 26.18l.495.072-.495-.072Zm-2.394.508v-.5h-.902l.478.765.424-.265Zm.68 2.338.5-.025-.5.025Zm-.551 2.582-.433-.25-.435.75h.868v-.5Zm4.857 0 .039-.498h-.016l-.022.499Zm1.885-.813-.371-.335.37.335Zm.431-.199.015.5h.015l-.03-.5Zm.443.173-.351.357.35-.357Zm.617.609.352-.356-.351.356Zm0 .837-.35-.357.35.357Zm-.85 0-.35.356.35-.356Zm-.207-.205.35-.356-.31-.306-.345.267.305.396Zm-2.36.782.017-.5h-.016v.5Zm-1.607 0v-.5h-.776l.32.706.456-.206Zm4.592 5.535.297-.402-.297.402Zm.24 5.49h-.5v.5h.5v-.5Zm3.963 0v.5h.5v-.5h-.5Zm.25-2.854.288.408h.001l-.29-.408Zm.541-.081-.158.474h.002l.156-.474Zm14.152-.662.203.457-.203-.457Zm.574.043.268-.422-.268.422Zm.274 3.553v.5h.5v-.5h-.5Zm-3.25 0h-.5v.5h.5v-.5Zm2.048 0v.5h.5v-.5h-.5Zm0-2.165h.5v-.73l-.68.264.18.466Zm-2.048.67-.13-.483-.37.1v.383h.5Zm-19.036 1.495h-.5v.5h.5v-.5Zm1.33 0v.5h.5v-.5h-.5Zm0-4.723h.5v-.247l-.196-.15-.304.397Zm-1.33-1.128.343-.364-.843-.794v1.158h.5Zm-8.54-8.09-.205-.455-.365.165.08.392.49-.102Zm1.267 1.731.022.5h.005l-.027-.5Zm.081-.01.103.489.013-.003.012-.003-.128-.483Zm.02-.005.106.488.007-.001.008-.002-.122-.485Zm.048-.015.16.474.005-.002-.165-.472Zm.92-1.628.494.075.083-.549-.554-.026-.024.5Zm-.058-1.61.058.497.55-.064-.12-.541-.488.109Zm-.445-1.095.416-.278-.416.278Zm-.645-.549.13-.483-.008-.002-.122.485Zm-.062-.012-.078.494.01.001.068-.495Zm-.022-.004.097-.49-.02-.004-.02-.003-.057.497Zm-.067-.003.005-.5h-.057l-.055.011.107.489Zm-.046.008-.06-.497-.01.001-.011.002.08.494Zm-.006 0 .061.497.01-.002.01-.001-.08-.494Zm-.051.008-.097-.491-.011.002.108.489Zm-.029.005-.073-.495-.035.005-.033.01.141.48Zm-.628.62.44.237h.001l-.44-.236Zm-.327 1.07-.495-.07-.055.397.375.14.175-.468Zm.53.754h-.5.5Zm1.871-.375.496-.059-.056-.469-.47.03.03.498Zm.027.752v.5h.477l.023-.476-.5-.024Zm0-.435.5-.024v-.002l-.5.026Zm-2.466-.224.326-.378-.797-.688-.03 1.052.5.014Zm.003.341.5-.024-.5.024Zm.015.207-.497.048.1 1.046.748-.738-.35-.356Zm8.665-13.984.231-.443-.971-.508.254 1.067.486-.116Zm.47 1.972-.487.116.186.78.619-.51-.318-.386Zm1.283-1.057.318.386.582-.48-.669-.349-.231.443Zm7.666 6.729v.5-.5Zm-1.045-4.712-.487.112.487-.112Zm-.526-1.762.462-.191-.166-.404-.423.11.127.485Zm-2.002 1.058-.348-.36.348.36Zm-1.068 1.497.453.21-.453-.21Zm-.796.293-.205.456.205-.456Zm-.299-.783.455.209-.455-.21Zm1.32-1.851-.348-.36.348.36Zm3.095-1.477-.065-.495h-.003l.068.495Zm.564.235-.4.3.4-.3Zm.884 2.528-.488.112.488-.112Zm.474 4.382h-.5.5Zm7.116-6.015.197-.46-.009-.003-.188.463Zm-6.922.012.17.47.004-.001-.174-.469Zm-.771-.35-.469.175.469-.175Zm.355-.76-.17-.47h-.001l.17.47Zm7.817.012.197-.46h-.001l-.196.46Zm.31.78-.457-.203.457.203Zm.039-9.938h-.5.5ZM37.68 44.5h-8.414v1h8.415v-1Zm-8.414 0c-.063 0-.1-.048-.1-.092h-1c0 .61.5 1.092 1.1 1.092v-1Zm-.1-.092v-1.801h-1v1.801h1Zm-.602-2.29a20.939 20.939 0 0 1-4.233.432v1c1.496 0 2.988-.154 4.435-.453l-.202-.98Zm-4.233.432c-1.94 0-3.842-.264-5.667-.783l-.274.961c1.916.546 3.91.822 5.94.822v-1Zm-6.304-.303v2.161h1v-2.16h-1Zm0 2.161c0 .044-.038.092-.1.092v1c.6 0 1.1-.482 1.1-1.092h-1Zm-.1.092H10.23v1h7.696v-1Zm-7.697 0c-.063 0-.1-.048-.1-.092h-1c0 .61.5 1.092 1.1 1.092v-1Zm-.1-.092v-7.703h-1v7.703h1Zm-.12-8.028a13.899 13.899 0 0 1-2.321-3.777l-.926.378c.59 1.45 1.43 2.813 2.486 4.048l.76-.65Zm-2.784-4.088h-3.42v1h3.42v-1Zm-3.42 0c-.006 0-.014 0-.024-.002l-.167.986c.06.01.124.016.19.016v-1Zm-.155-.007a1.33 1.33 0 0 1-.056.004l.043.999.108-.007-.095-.996Zm-.062.004c-.466.026-.948-.223-1.35-.769-.401-.544-.688-1.347-.734-2.288l-.998.049c.054 1.104.39 2.104.927 2.833.537.728 1.31 1.223 2.21 1.174l-.055-.999Zm-2.084-3.057c-.041-.847.124-1.639.441-2.23l-.882-.473c-.417.78-.606 1.758-.557 2.752l.998-.05ZM1.947 27c.286-.534.651-.838 1.022-.953l-.297-.955c-.682.212-1.23.732-1.607 1.436l.882.472Zm1.105-.987a.075.075 0 0 1 .034-.01v-1c-.18 0-.35.046-.498.124l.464.886Zm.034-.01h.045v-1h-.045v1Zm.102-.003c.034-.004.066-.007.097-.008l-.05-1c-.056.004-.11.008-.162.015l.115.993Zm.097-.008c.07-.004.141-.001.213.008l.12-.993a2.264 2.264 0 0 0-.383-.014l.05.999Zm.273.011h2.92v-1h-2.92v1Zm3.413-.416c.52-3.06 1.583-5.047 3.693-6.958l-.672-.741c-2.29 2.074-3.452 4.269-4.007 7.531l.986.168Zm3.844-7.445L9.9 14.308l-.973.232.914 3.835.973-.232ZM9.9 14.308a.087.087 0 0 1 .034-.09l-.604-.796c-.343.26-.503.697-.403 1.118l.973-.232Zm.035-.09a.108.108 0 0 1 .114-.01l.463-.886a1.108 1.108 0 0 0-1.183.1l.606.796Zm.114-.01 3.397 1.775.463-.886-3.397-1.774-.463.886Zm3.895 1.754c2.887-1.824 6.373-2.76 10.387-2.76v-1c-4.172 0-7.85.974-10.921 2.915l.534.845Zm10.387-2.76c9.232 0 16.713 5.951 17.504 13.363l.995-.106c-.86-8.048-8.895-14.256-18.5-14.256v1Zm18.19 13.773a7.333 7.333 0 0 0 2.069-1.3l-.663-.749a6.333 6.333 0 0 1-1.783 1.123l.377.926Zm2.069-1.3c1.42-1.256 1.697-2.704 1.71-2.782l-.988-.16c.008-.051-.2 1.146-1.385 2.193l.663.75Zm1.708-2.777a.1.1 0 0 1 .118-.076l.166-.986a1.1 1.1 0 0 0-1.269.892l.985.17Zm.118-.076c.06.01.09.062.082.105l.985.17a1.092 1.092 0 0 0-.901-1.26l-.166.985Zm.082.105c-.004.018-.279 1.564-1.768 2.88l.662.75c1.733-1.532 2.07-3.336 2.09-3.459l-.984-.171Zm-1.768 2.88c-.995.88-1.953 1.292-2.484 1.47l.317.948c.627-.21 1.712-.681 2.83-1.669l-.663-.749Zm-2.826 1.946v.123h1v-.128l-1 .005Zm0 .123c0 3.377-1.402 6.67-3.98 9.296l.714.7c2.745-2.795 4.267-6.334 4.267-9.995h-1Zm-4.123 9.646v6.886h1v-6.886h-1Zm0 6.887c0 .043-.037.091-.1.091v1c.6 0 1.1-.481 1.1-1.092h-1Zm-4.664-.093h3.963v-1h-3.963v1Zm4.463-.5V37.28h-1v6.536h1Zm0-6.536c0-.022.008-.044.027-.062l-.703-.711a1.088 1.088 0 0 0-.324.773h1Zm.026-.062c2.632-2.599 4.097-5.915 4.097-9.342h-1c0 3.134-1.34 6.2-3.8 8.63l.703.712Zm4.097-9.342c0-8.074-7.884-14.49-17.372-14.49v1c9.119 0 16.372 6.136 16.372 13.49h1Zm-17.372-14.49c-4.058 0-7.61.967-10.535 2.897l.55.835c2.737-1.805 6.089-2.732 9.985-2.732v-1Zm-10.578 2.929-2.686 2.213.636.772 2.686-2.213-.636-.772Zm-2.696 2.221c-1.178 1.025-2.051 2.062-2.69 3.284-.637 1.22-1.028 2.598-1.275 4.288l.99.144c.236-1.618.602-2.88 1.171-3.969.568-1.087 1.353-2.03 2.46-2.992l-.656-.755Zm-3.965 7.572a.099.099 0 0 1-.1.08v1c.542 0 1.01-.394 1.09-.936l-.99-.144Zm-.1.08H5.194v1h1.799v-1Zm-2.223.765c.335.536.564 1.265.605 2.097l1-.049c-.049-.978-.32-1.878-.757-2.578l-.848.53Zm.605 2.097c.045.917-.15 1.729-.485 2.308l.865.5c.447-.772.672-1.781.62-2.857l-1 .049Zm-.052 3.058h4.827v-1H5.323v1Zm4.827 0h.008l.045-.999h-.053v1Zm-.008 0c.072.005.409.01.837-.105a2.97 2.97 0 0 0 1.457-.873l-.742-.67a1.972 1.972 0 0 1-.97.577c-.313.083-.537.07-.505.073l-.077.997Zm2.294-.978a.105.105 0 0 1 .075-.034l-.03-1c-.3.01-.585.14-.787.364l.742.67Zm.09-.035c.009 0 .034.004.062.03l.702-.712a1.086 1.086 0 0 0-.824-.316l.06.998Zm.062.03.618.61.701-.713-.617-.609-.702.713Zm.618.609a.086.086 0 0 1 0 .124l.701.713a1.086 1.086 0 0 0 0-1.55l-.701.713Zm0 .124a.108.108 0 0 1-.149 0l-.701.713c.429.423 1.121.423 1.551 0l-.701-.713Zm-.149 0-.207-.204-.702.713.208.204.701-.712Zm-.863-.244c-.885.683-1.905.683-2.038.678l-.033 1c.215.007 1.521.01 2.681-.886l-.61-.791Zm-2.054.678H8.532v1h1.608v-1Zm-2.063.706c.997 2.2 2.629 4.165 4.75 5.73l.594-.804c-1.998-1.474-3.513-3.31-4.433-5.338l-.911.413Zm4.75 5.73a.09.09 0 0 1 .037.072h1c0-.346-.165-.67-.443-.875l-.595.803Zm.037.072v5.016h1V38.8h-1Zm.5 5.516h3.963v-1h-3.963v1Zm4.463-.5v-2.373h-1v2.373h1Zm0-2.373a.09.09 0 0 1 .038-.072l-.578-.816c-.287.204-.46.534-.46.888h1Zm.04-.072a.106.106 0 0 1 .093-.015l.316-.949a1.106 1.106 0 0 0-.99.149l.58.815Zm.095-.014c2.037.67 4.18 1.01 6.37 1.01v-1c-2.086 0-4.123-.323-6.058-.96l-.312.95Zm6.37 1.01c2.831 0 5.646-.583 8.141-1.69l-.405-.914c-2.363 1.048-5.038 1.604-7.736 1.604v1Zm8.142-1.69a.109.109 0 0 1 .101.008l.537-.844a1.108 1.108 0 0 0-1.045-.078l.407.914Zm.1.007a.09.09 0 0 1 .044.076h1c0-.374-.193-.72-.506-.919l-.537.843Zm.044.076v3.056h1V40.76h-1Zm.5 2.556v1-1Zm-3.25 1h2.048v-1h-2.048v1Zm2.548-.5v-2.165h-1v2.165h1Zm-.68-2.631c-.65.252-1.317.47-1.998.653l.26.966a20.758 20.758 0 0 0 2.099-.687l-.362-.932Zm-2.368 1.136v1.495h1v-1.495h-1Zm-18.536 1.995h1.33v-1h-1.33v1Zm1.83-.5v-4.723h-1v4.723h1Zm-.196-5.12a16.61 16.61 0 0 1-1.291-1.095l-.686.728c.431.405.888.793 1.37 1.161l.607-.794Zm-2.134-.731v5.851h1v-5.851h-1Zm-8.53-7.988c.12.581.34 1.091.62 1.465.266.354.666.685 1.16.664l-.045-1h-.003a.284.284 0 0 1-.081-.036.927.927 0 0 1-.23-.227c-.176-.234-.344-.6-.44-1.069l-.98.203Zm1.784 2.129c.053-.003.106-.01.157-.021l-.206-.979-.004.001.053.999Zm.182-.027.008-.002h.002-.003l-.009.002-.214-.977a.597.597 0 0 0-.039.01h-.001l.256.967Zm.013-.003a1.12 1.12 0 0 0 .087-.026l-.32-.947a.145.145 0 0 1-.01.003l.243.97Zm.092-.028c.362-.126.638-.434.83-.766.199-.344.345-.777.419-1.26l-.989-.15c-.058.38-.17.69-.296.91-.134.232-.252.308-.294.323l.33.943Zm.778-2.6a.314.314 0 0 1-.304-.307h-1c0 .708.565 1.274 1.257 1.306l.047-.999Zm-.304-.307c0-.15.117-.287.28-.306l-.115-.993a1.314 1.314 0 0 0-1.165 1.299h1Zm.71-.911a3.782 3.782 0 0 0-.516-1.265l-.831.555c.157.236.289.556.372.928l.976-.218Zm-.516-1.265c-.23-.346-.546-.65-.931-.754l-.26.966c.052.014.192.093.36.343l.831-.555Zm-.939-.756a1.047 1.047 0 0 0-.115-.022l-.137.99.008.002.244-.97Zm-.105-.021H3.49l-.002-.001h.004l-.194.982.041.007.157-.988Zm-.044-.007c-.052-.006-.102-.006-.119-.006l-.01 1h.02-.005l.114-.994Zm-.231.005.121.993c.027-.003.058-.008.093-.016l-.214-.977Zm-.02.003-.006.001.162.987.006-.001-.162-.987Zm.014-.002-.01.001a1.308 1.308 0 0 0-.077.012l.193.981-.008.002.008-.001.016-.002-.122-.993Zm-.099.015h.007l.146.989a.923.923 0 0 0 .064-.012l-.216-.977Zm-.061.014c-.412.122-.721.48-.928.865l.882.472c.152-.285.29-.366.328-.377l-.282-.96Zm-.928.865c-.193.361-.32.79-.381 1.235l.99.138c.05-.355.146-.665.273-.901l-.882-.472Zm-.061 1.772a.31.31 0 0 1 .205.287h1a1.31 1.31 0 0 0-.854-1.223l-.351.936Zm.205.287c0 .12-.072.229-.185.28l.411.911c.452-.204.774-.657.774-1.19h-1Zm2.34-.874a.88.88 0 0 0-.827.875h1a.12.12 0 0 1-.111.123l-.062-.998Zm-.827.875c0 .49.402.876.882.876v-1a.12.12 0 0 1 .118.124h-1Zm.882.876h.003v-1h-.003v1Zm.503-.476a5.02 5.02 0 0 0 0-.483l-1 .049a4.02 4.02 0 0 1 0 .386l1 .048Zm0-.485a5.243 5.243 0 0 0-.03-.35l-.993.119c.01.093.019.187.024.283l.998-.052Zm-3.466-.212c-.004.126-.002.253.004.38l.999-.05a3.87 3.87 0 0 1-.004-.302l-1-.027Zm.004.38c.004.077.01.154.017.23l.995-.095a3.919 3.919 0 0 1-.013-.184l-.999.048Zm.865.538a.872.872 0 0 0 .26-.621h-1c0-.037.016-.07.038-.09l.702.712Zm.26-.621a.872.872 0 0 0-.303-.661l-.653.757a.128.128 0 0 1-.043-.096h1Zm7.568-13.603.47 1.972.972-.232-.47-1.972-.972.232Zm1.274 2.242 1.283-1.057-.636-.771-1.283 1.056.636.772Zm1.196-1.886-1.753-.915-.463.886 1.753.916.463-.887Zm.26 9.091c-.765 0-1.376-.612-1.376-1.348h-1c0 1.303 1.073 2.348 2.377 2.348v-1Zm-1.376-1.348c0-.735.61-1.348 1.377-1.348v-1c-1.304 0-2.377 1.046-2.377 2.348h1Zm1.377-1.348c.765 0 1.376.613 1.376 1.348h1c0-1.302-1.073-2.348-2.376-2.348v1Zm1.376 1.348c0 .736-.61 1.348-1.376 1.348v1c1.303 0 2.376-1.045 2.376-2.348h-1Zm-1.376-1.164a1.17 1.17 0 0 0-1.175 1.164h1a.17.17 0 0 1 .175-.164v-1Zm-1.175 1.164c0 .65.534 1.165 1.175 1.165v-1a.17.17 0 0 1-.175-.165h-1Zm1.175 1.165a1.17 1.17 0 0 0 1.174-1.165h-1a.17.17 0 0 1-.174.165v1Zm1.174-1.165a1.17 1.17 0 0 0-1.174-1.164v1a.17.17 0 0 1 .174.164h1Zm6-1.071c-.063 0-.1-.049-.1-.092h-1c0 .61.5 1.091 1.1 1.092v-1Zm-.1-.092c0-.026-.005-2.27-.458-4.232l-.974.224c.211.916.32 1.912.375 2.689a23.76 23.76 0 0 1 .055 1.22l.001.099h1Zm-.458-4.232c-.213-.926-.411-1.502-.55-1.841l-.925.381c.114.278.297.8.5 1.684l.975-.224Zm-1.14-2.134c-.53.14-1.485.468-2.223 1.183l.696.718c.555-.538 1.312-.81 1.781-.934l-.254-.967Zm-2.223 1.183c-.738.715-1.164 1.623-1.174 1.645l.907.421c-.002.006.36-.764.963-1.348l-.696-.718Zm-1.174 1.645a.106.106 0 0 1-.138.047l-.409.913c.547.245 1.199.01 1.454-.539l-.907-.421Zm-.138.047c-.053-.023-.067-.077-.048-.117l-.909-.418a1.088 1.088 0 0 0 .548 1.448l.41-.913Zm-.048-.117a6.405 6.405 0 0 1 1.213-1.7l-.696-.72a7.386 7.386 0 0 0-1.426 2.002l.909.418Zm1.213-1.7c1.135-1.1 2.755-1.333 2.815-1.341l-.136-.991c-.09.012-1.994.275-3.375 1.613l.696.718Zm2.812-1.341a.106.106 0 0 1 .1.039l.8-.6a1.106 1.106 0 0 0-1.03-.43l.13.991Zm.1.04c.013.017.375.515.796 2.34l.974-.225c-.436-1.89-.84-2.541-.97-2.716l-.8.6Zm.796 2.34c.456 1.977.46 4.18.46 4.27h1c0-.1-.003-2.4-.486-4.495l-.975.224Zm.46 4.27c0 .042-.037.09-.1.09v1c.6 0 1.101-.48 1.1-1.091h-1Zm7.855-6.467a.105.105 0 0 1-.041-.009l-.394.92c.142.06.29.089.435.089v-1Zm-.05-.012a1.212 1.212 0 0 0-.078-.031 8.948 8.948 0 0 0-.934-.286 10.452 10.452 0 0 0-2.49-.304v1a9.45 9.45 0 0 1 2.25.275 7.932 7.932 0 0 1 .818.25l.057.022.377-.926Zm-3.501-.621c-2.024 0-3.742.612-3.783.628l.348.937c-.008.003 1.583-.565 3.435-.565v-1ZM20.93 16a.104.104 0 0 1-.132-.056l-.936.351c.212.567.845.85 1.41.645l-.341-.94Zm-.132-.056c-.015-.04.003-.094.058-.114l-.342-.94a1.09 1.09 0 0 0-.653 1.405l.937-.35Zm.058-.114c.054-.02 1.779-.64 3.854-.64v-1c-2.248 0-4.1.665-4.196.7l.341.94Zm3.854-.64c2.084 0 3.563.628 3.595.642l.393-.92c-.097-.04-1.716-.722-3.988-.722v1Zm3.595.642c.053.022.068.076.05.117l.915.405a1.088 1.088 0 0 0-.57-1.441l-.395.919Zm.05.117a.102.102 0 0 1-.094.058v1c.42 0 .826-.24 1.009-.653l-.915-.405Zm-3.784-6.02c-2.09 0-3.779-1.674-3.779-3.715h-1c0 2.607 2.151 4.715 4.78 4.715v-1Zm-3.779-3.715c0-2.04 1.689-3.715 3.78-3.715v-1c-2.629 0-4.78 2.108-4.78 4.715h1Zm3.78-3.715c2.09 0 3.779 1.674 3.779 3.715h1c0-2.608-2.151-4.715-4.78-4.715v1Zm3.779 3.715c0 2.04-1.689 3.715-3.78 3.715v1c2.629 0 4.78-2.108 4.78-4.715h-1Zm-3.78-3.531c-1.965 0-3.577 1.576-3.577 3.53h1c0-1.387 1.15-2.53 2.578-2.53v-1Zm-3.577 3.53c0 1.955 1.612 3.532 3.578 3.532v-1c-1.428 0-2.578-1.143-2.578-2.531h-1Zm3.578 3.532c1.965 0 3.577-1.577 3.577-3.531h-1c0 1.388-1.15 2.53-2.578 2.53v1Zm3.577-3.531c0-1.955-1.612-3.531-3.578-3.531v1c1.428 0 2.578 1.143 2.578 2.53h1Z" mask="url(#b)"/></g><defs><clipPath id="a"><path fill="#fff" d="M0 0h47v47H0z"/></clipPath></defs></svg>