<svg xmlns="http://www.w3.org/2000/svg" width="47" height="47" fill="none"><path fill="#4C4C56" d="M23.5 46.248a4.122 4.122 0 0 1-2.162-.59l-8.151-4.768A19.862 19.862 0 0 1 3.02 23.768V10.743a4.297 4.297 0 0 1 2.807-4.029L22.023.765c.954-.349 2-.349 2.954 0l16.195 5.95a4.297 4.297 0 0 1 2.807 4.028v13.025A19.862 19.862 0 0 1 33.813 40.89l-8.151 4.767c-.652.393-1.4.598-2.162.591Zm0-42.38a.9.9 0 0 0-.322 0L6.983 9.842a.926.926 0 0 0-.604.9v13.025a16.517 16.517 0 0 0 8.5 14.221l8.151 4.781a.98.98 0 0 0 .94 0l8.151-4.78a16.517 16.517 0 0 0 8.5-14.222V10.743a.926.926 0 0 0-.604-.873L23.822 3.921a.9.9 0 0 0-.322-.054Z"/><path fill="#4C4C56" d="M22.023 30.013a1.746 1.746 0 0 1-1.088-.39l-5.734-4.834a1.682 1.682 0 0 1 2.162-2.578l4.499 3.787 7.68-8.46a1.683 1.683 0 0 1 2.499 2.256l-8.702 9.668a1.705 1.705 0 0 1-1.316.55Z"/></svg>